<?xml version="1.0" encoding="utf-8"?>
<!-- Generator: Adobe Illustrator 17.1.0, SVG Export Plug-In . SVG Version: 6.00 Build 0)  -->
<!DOCTYPE svg PUBLIC "-//W3C//DTD SVG 1.1//EN" "http://www.w3.org/Graphics/SVG/1.1/DTD/svg11.dtd">
<svg version="1.1" id="Layer_1" xmlns="http://www.w3.org/2000/svg" xmlns:xlink="http://www.w3.org/1999/xlink" x="0px" y="0px"
	 viewBox="0 0 130.8 48" enable-background="new 0 0 130.8 48" xml:space="preserve">
<g>
	<path fill="#FFFFFF" d="M41.6,23.5h3.7v11.6c0,0.8,0.3,1.5,0.8,2.1c0.6,0.6,1.2,0.9,2,0.9h6.5V23.5h3.7V38c0,1-0.4,1.9-1.1,2.6
		c-0.7,0.7-1.6,1.1-2.7,1.1h-6.4c-1.2,0-2.3-0.3-3.3-0.9c-1-0.6-1.8-1.4-2.4-2.4c-0.6-1-0.9-2.1-0.9-3.3V23.5z"/>
	<path fill="#FFFFFF" d="M62.6,27.2c0-1,0.4-1.9,1.1-2.6c0.7-0.7,1.6-1.1,2.6-1.1h6.4c1.2,0,2.3,0.3,3.3,0.9c1,0.6,1.8,1.4,2.4,2.4
		c0.6,1,0.9,2.1,0.9,3.3v11.7h-3.7V30.1c0-0.8-0.3-1.5-0.8-2.1c-0.6-0.6-1.2-0.9-2-0.9h-6.5v14.6h-3.7V27.2z"/>
	<path fill="#EE2C5C" d="M83.1,18.5c0-0.6,0.2-1.2,0.7-1.6c0.4-0.4,1-0.7,1.6-0.7c0.6,0,1.2,0.2,1.6,0.7c0.4,0.4,0.7,1,0.7,1.6
		c0,0.6-0.2,1.2-0.7,1.6c-0.4,0.4-1,0.7-1.6,0.7c-0.6,0-1.2-0.2-1.6-0.7C83.3,19.7,83.1,19.1,83.1,18.5z"/>
	<path fill="#FFFFFF" d="M85.4,23.5L85.4,23.5c1.1,0,1.9,0.8,1.9,1.8v16.4h-3.7V25.3C83.5,24.3,84.4,23.5,85.4,23.5z"/>
	<path fill="#FFFFFF" d="M91.3,30c0-1.2,0.3-2.3,0.9-3.3c0.6-1,1.4-1.8,2.4-2.4c1-0.6,2.1-0.9,3.3-0.9h10.2v18.2h-3.7V27.2h-6.5
		c-0.8,0-1.5,0.3-2,0.8c-0.6,0.6-0.8,1.2-0.8,2v5c0,0.8,0.3,1.5,0.8,2.1c0.6,0.6,1.2,0.9,2,0.9h4.3v3.7h-4.3c-1.2,0-2.3-0.3-3.3-0.9
		c-1-0.6-1.8-1.4-2.4-2.4c-0.6-1-0.9-2.1-0.9-3.3V30z"/>
	<path fill="#FFFFFF" d="M112.1,30c0-1.2,0.3-2.3,0.9-3.3c0.6-1,1.4-1.8,2.4-2.4c1-0.6,2.1-0.9,3.3-0.9h4.3v3.7h-4.3
		c-0.8,0-1.5,0.3-2,0.9c-0.6,0.6-0.8,1.3-0.8,2.1v5c0,0.8,0.3,1.5,0.8,2c0.6,0.6,1.2,0.8,2,0.8h6.5V16.7h3.7V38c0,1-0.4,1.9-1.1,2.6
		c-0.7,0.7-1.6,1.1-2.6,1.1h-6.5c-1.2,0-2.3-0.3-3.3-0.9c-1-0.6-1.8-1.4-2.4-2.4c-0.6-1-0.9-2.1-0.9-3.3V30z"/>
	<g>
		<path fill-rule="evenodd" clip-rule="evenodd" fill="#EE2C5C" d="M18.2,3.9c0.5,2.1,0.5,2.2,0,4.3C16.6,16.4,10.7,26.6,6.6,34
			c-2.5,4.5-1.9,6.1,3.5,6.3c5.7,0.3,13.6-1.9,18.7-4.4c0.7-0.3,1.1-0.6,1.5-0.9c-3.2-1.5-9.2-1.9-12.4-2.3c-2.2-0.3-4.6-1.4-3.9-4
			c0.6-2.6,5.5-5.6,7.6-7.2c3.5-2.7,10.2-7.8,7.2-12.9c-1.7-2.9-4.8-4.2-7.1-6.5c2.1,0.2,2.9,0.5,4.8,1.5c9.9,5.1,6.6,12.9,0.2,19.3
			c-0.6,0.6-3.2,2.9-5.3,4.8c4.3,0.2,9.3,0.7,12.4,2.3c3,1.5,4.6,4.2,3,7.4c-3.7,7.3-22.9,10.3-30.2,8.2c-7.7-2.3-7.8-8-3.9-13.9
			c4.6-7,9.2-13.7,12.8-21.3C16.5,8.1,17.2,5.9,18.2,3.9L18.2,3.9z M31.3,35.6C31.3,35.6,31.3,35.7,31.3,35.6
			C31.3,35.7,31.3,35.6,31.3,35.6L31.3,35.6z M18.8,30.1C18.8,30.1,18.7,30.2,18.8,30.1C18.8,30.2,18.8,30.1,18.8,30.1L18.8,30.1z"
			/>
	</g>
</g>
</svg>
