<?xml version="1.0" encoding="utf-8"?>
<!-- Generator: Adobe Illustrator 17.1.0, SVG Export Plug-In . SVG Version: 6.00 Build 0)  -->
<!DOCTYPE svg PUBLIC "-//W3C//DTD SVG 1.1//EN" "http://www.w3.org/Graphics/SVG/1.1/DTD/svg11.dtd">
<svg version="1.1" id="Layer_1" xmlns="http://www.w3.org/2000/svg" xmlns:xlink="http://www.w3.org/1999/xlink" x="0px" y="0px"
	 viewBox="64 123 500.9 221" enable-background="new 64 123 500.9 221" xml:space="preserve">
<g>
	<path fill="#40005C" d="M1424,438.2H812V375c0-37,30-67,67-67h478c37,0,67,30,67,67V438.2z"/>
</g>
<path fill="#A03E97" d="M314.5,129.4c126.4,0,231.3,93.3,249.7,214.6h0.8c-7.9-53.3-32.6-102.4-71.4-141.2
	c-47.8-47.8-111.4-74.2-179.1-74.2S183.2,155,135.4,202.8C96.6,241.6,72,290.7,64,344h0.8C83.1,222.7,188.1,129.4,314.5,129.4z"/>
<path fill="#A03E97" d="M314.5,175.4c100.9,0,185.2,72.8,203,168.6h0.8c-7.5-40.9-27.2-78.6-57.3-108.6
	c-39.1-39.1-91.2-60.7-146.6-60.7s-107.4,21.6-146.6,60.7c-30.1,30.1-49.7,67.7-57.3,108.6h0.8C129.3,248.2,213.5,175.4,314.5,175.4
	z"/>
<path fill="#A03E97" d="M314.5,221.3c75.5,0,139,52.4,156.1,122.7h0.8c-17.1-70.8-81-123.5-156.9-123.5S174.7,273.2,157.6,344h0.8
	C175.4,273.7,239,221.3,314.5,221.3z"/>
</svg>
